<?xml version="1.0" encoding="UTF-8" standalone="no"?>
<!-- Created with Inkscape (http://www.inkscape.org/) -->

<svg
   width="210mm"
   height="297mm"
   viewBox="0 0 210 297"
   version="1.1"
   id="svg1"
   xmlns="http://www.w3.org/2000/svg"
   xmlns:svg="http://www.w3.org/2000/svg">
  <defs
     id="defs1" />
  <g
     id="layer1"
     transform="matrix(3.4637054,0,0,3.7620903,-299.11138,-323.72167)">
    <path
       d="m 104.68428,150.43708 -0.22562,-0.0758 -0.26323,-0.21336 -0.26323,-0.21335 v -0.45479 -0.45479 l 1.03717,-1.46419 1.03717,-1.46419 1.15466,-1.83081 1.15466,-1.83082 0.5913,-0.49705 0.5913,-0.49704 0.338,0.002 0.338,0.002 0.17861,0.10567 0.17861,0.10567 0.14997,0.36699 0.14997,0.367 -0.0882,0.32991 -0.0882,0.32992 -0.75599,1.18959 -0.756,1.18959 -1.21416,1.87282 -1.21417,1.87283 -0.60166,0.60211 -0.60167,0.60211 -0.30083,0.0667 -0.30083,0.0667 z m 39.27108,-0.53294 -1.10715,-0.49368 -1.29526,-0.78024 -1.29526,-0.78023 -2.25625,-2.13698 -2.25624,-2.13697 -0.63508,-0.29869 -0.63509,-0.2987 -0.53064,-0.43349 -0.53064,-0.4335 v -0.27254 -0.27255 l 0.56177,-0.21839 0.56176,-0.21839 0.70648,0.0779 0.70649,0.0779 0.64956,0.30239 0.64955,0.30239 2.10583,1.98274 2.10582,1.98274 0.97771,0.64681 0.9777,0.64681 0.97771,0.48957 0.9777,0.48957 0.5636,0.1657 0.56359,0.1657 0.22609,0.30033 0.22609,0.30034 v 0.3251 0.3251 l -0.3692,0.34351 -0.3692,0.34352 h -0.57514 -0.57515 z m -49.301784,-1.40904 -0.3904,-0.36324 0.0857,-3.52042 0.0856,-3.52042 0.23252,-2.51913 0.23252,-2.51913 0.15428,-3.2869 0.15427,-3.28689 v -2.21255 -2.21256 l -0.49289,0.086 -0.4929,0.086 -0.4096,-0.29978 -0.4096,-0.29977 v -0.44854 -0.44853 l 0.23232,-0.30861 0.23231,-0.3086 0.66296,-0.42439 0.66296,-0.4244 0.0448,-3.579 0.0448,-3.57899 0.42203,-0.33756 0.42203,-0.33755 h 0.28406 0.28406 l 0.42203,0.3375 0.42203,0.33749 0.0462,2.8814 0.0462,2.88139 h 0.14681 0.14682 l 0.70948,-0.33357 0.70947,-0.33358 1.039154,-0.28926 1.03915,-0.28926 0.27699,0.13793 0.27699,0.13793 v 0.25398 0.25398 l -0.44096,0.56639 -0.44097,0.56638 -0.49913,0.35018 -0.49914,0.35017 -1.203334,0.61337 -1.20333,0.61336 -0.0324,1.81493 -0.0324,1.81493 -0.16164,4.40848 -0.16164,4.40848 -0.22696,2.5891 -0.22696,2.58911 -0.18989,3.62309 -0.1899,3.62309 -0.34585,0.26057 -0.34586,0.26057 h -0.36621 -0.36622 z m 22.305304,-1.32156 -0.43556,-0.12127 -0.44786,-0.39152 -0.44786,-0.39151 -0.2071,-0.45035 -0.2071,-0.45035 v -0.48522 -0.48521 l 0.15999,-0.39398 0.15999,-0.39398 0.39461,-0.38486 0.39461,-0.38487 h 0.41781 0.41782 l 0.15571,0.2707 0.15571,0.2707 0.002,0.53402 0.002,0.53402 0.0907,0.31489 0.0907,0.3149 h 0.65499 0.655 l 1.45408,-0.92371 1.45408,-0.92372 0.43423,-0.14084 0.43423,-0.14084 0.50815,0.0887 0.50814,0.0887 0.6538,0.56967 0.65381,0.56967 0.78748,0.47916 0.78749,0.47915 0.24247,0.43626 0.24247,0.43627 -0.16322,0.33329 -0.16321,0.33329 -0.38833,0.13737 -0.38832,0.13737 -0.40321,-0.0899 -0.4032,-0.0898 -0.45125,-0.20598 -0.45125,-0.20598 -0.70386,-0.54411 -0.70386,-0.54412 h -0.0906 -0.0907 l -1.18169,0.77042 -1.18168,0.77043 -0.63739,0.20924 -0.63739,0.20923 -0.84598,-0.012 -0.84598,-0.012 z m -1.28499,-14.79451 -0.32492,-0.24492 -0.1394,-0.55981 -0.1394,-0.5598 0.002,-0.83971 0.002,-0.83971 0.21742,-1.11962 0.21742,-1.11961 0.003,-1.42377 0.003,-1.42377 0.38941,-0.43059 0.38941,-0.43059 h 0.25399 0.25399 l 0.31628,0.20611 0.31628,0.20612 1.04387,-0.94086 1.04387,-0.94087 0.88534,-0.40329 0.88534,-0.4033 0.90911,-0.0585 0.90912,-0.0585 0.37153,0.18396 0.37152,0.18396 0.34295,0.4735 0.34295,0.4735 v 1.01329 1.01329 l -0.37853,1.21537 -0.37854,1.21537 -0.30761,0.56102 -0.30761,0.56102 0.0899,0.38062 0.0898,0.38063 -0.45697,0.58694 -0.45697,0.58694 -1.09016,0.74428 -1.09017,0.74428 -0.93334,0.52236 -0.93334,0.52236 -0.87165,0.13282 -0.87165,0.13283 -0.32178,8.1e-4 -0.32177,8.1e-4 z m 3.3844,-2.9796 0.93274,-0.56543 0.22217,-0.23929 0.22217,-0.2393 0.16389,-0.45484 0.16389,-0.45484 h -0.10832 -0.10832 l -0.59614,0.45484 -0.59613,0.45484 -0.43142,0.45485 -0.43143,0.45484 h -0.20475 -0.20475 l -0.1557,0.2707 -0.15571,0.2707 v 0.0792 0.0792 h 0.17753 0.17754 z m 1.21692,-4.42951 0.92537,-0.60813 0.46598,-0.15114 0.46599,-0.15115 v -0.41559 -0.4156 l -0.33844,0.0986 -0.33844,0.0986 -0.62585,0.39882 -0.62585,0.39881 -0.61411,0.66664 -0.61411,0.66664 -9.7e-4,0.11322 -9.7e-4,0.11322 0.18802,-0.10238 0.18802,-0.10239 z m -31.838214,4.31637 -0.52411,-0.2587 -0.55088,-0.67214 -0.55088,-0.67214 -0.17953,-0.5966 -0.17953,-0.5966 0.17201,-0.48493 0.17201,-0.48493 0.25757,-0.2103 0.25756,-0.2103 0.33276,-0.0943 0.33275,-0.0943 0.34412,0.16865 0.34412,0.16866 0.11051,0.15399 0.1105,0.15399 0.002,0.57999 0.002,0.58 0.41863,0.39966 0.41862,0.39967 0.48648,0.2398 0.48649,0.2398 0.0888,0.21536 0.0888,0.21535 -0.0936,0.34703 -0.0936,0.34702 -0.4416,0.21247 -0.4416,0.21247 h -0.42346 -0.42346 z m 20.799874,-13.45182 -0.31744,-0.27517 -0.0963,-0.28239 -0.0963,-0.28238 0.19774,-0.38712 0.19774,-0.38712 0.67652,-0.31181 0.67652,-0.31181 1.31293,-0.55241 1.31293,-0.55241 0.8681,-0.63097 0.8681,-0.63096 0.64591,-0.53412 0.64591,-0.53411 0.0488,-1.88935 0.0488,-1.88935 0.17533,-0.68334 0.17533,-0.68334 -0.0695,-0.0647 -0.0695,-0.0647 -2.60548,0.85362 -2.60548,0.85361 -0.22976,-6.3e-4 -0.22976,-6.3e-4 -0.3451,-0.22491 -0.3451,-0.2249 -0.11896,-0.29919 -0.11895,-0.29919 0.14101,-0.37636 0.14101,-0.37636 0.32718,-0.19287 0.32718,-0.19288 1.20333,-0.39489 1.20333,-0.39489 4.01623,-1.38079 4.01624,-1.38079 h 0.43836 0.43836 l 0.41023,0.30023 0.41023,0.30024 -0.0662,0.43451 -0.0662,0.43451 -0.10901,0.23227 -0.109,0.23227 0.32544,0.0961 0.32544,0.0961 0.20649,0.45982 0.20649,0.45981 -0.13709,0.44474 -0.13709,0.44474 -0.53985,0.89819 -0.53985,0.89818 -1.09727,1.36768 -1.09728,1.36768 -0.77435,0.83971 -0.77434,0.83971 0.13668,0.0434 0.13669,0.0434 2.48608,-0.91806 2.48607,-0.91805 h 0.31713 0.31713 l 0.29815,0.14846 0.29814,0.14846 0.15001,0.36711 0.15001,0.3671 -0.17242,0.3873 -0.17242,0.3873 -0.36946,0.22523 -0.36946,0.22524 -2.07476,0.75262 -2.07477,0.75262 -3.21076,0.9323 -3.21076,0.93231 -1.61592,0.61579 -1.61593,0.6158 h -0.43195 -0.43194 z m 10.45092,-9.7643 0.90032,-1.22665 0.48575,-0.80472 0.48574,-0.80473 -0.27759,0.006 -0.27759,0.006 -0.65467,0.30912 -0.65468,0.30913 -0.49699,1.04964 -0.497,1.04963 -0.10602,0.75265 -0.10602,0.75264 0.14921,-0.0858 0.14922,-0.0858 z m -3.34616,-5.07516 -0.0928,-0.13979 -0.14926,-1.784546 -0.14925,-1.78454 -0.14197,-0.48984 -0.14197,-0.48983 -8.4e-4,-0.53558 -8.4e-4,-0.53559 0.43968,-0.40909 0.43968,-0.40909 h 0.31924 0.31924 l 0.34428,0.32033 0.34428,0.32034 0.25055,1.27418 0.25054,1.27419 -8.4e-4,0.74967 -8.4e-4,0.74968 -0.14648,0.48983 -0.14649,0.489826 -0.46529,0.52482 -0.46529,0.52482 h -0.35621 -0.35621 z"
       style="fill:#000000;fill-opacity:1;stroke:none;stroke-width:1.05833;stroke-dasharray:none;stroke-opacity:1;paint-order:normal"
       id="path1" />
  </g>
</svg>
