<?xml version="1.0" encoding="UTF-8" standalone="no"?>
<!-- Created with Inkscape (http://www.inkscape.org/) -->

<svg
   width="210mm"
   height="297mm"
   viewBox="0 0 210 297"
   version="1.1"
   id="svg1"
   xmlns="http://www.w3.org/2000/svg"
   xmlns:svg="http://www.w3.org/2000/svg">
  <defs
     id="defs1" />
  <g
     id="layer1"
     transform="matrix(3.1998846,0,0,4.6143974,-283.06453,-358.1213)">
    <path
       d="m 134.87674,129.19074 -0.49666,-0.23441 -0.21781,-0.3919 -0.21782,-0.39191 v -0.40967 -0.40967 l 0.21315,-0.16459 0.21315,-0.16459 0.57654,0.0425 0.57653,0.0425 0.10906,-0.90968 0.10905,-0.90969 0.45644,-3.63874 0.45644,-3.63875 -0.001,-0.10105 -0.001,-0.10106 -0.86489,-0.22386 -0.8649,-0.22387 -1.30749,-0.34784 -1.30749,-0.34785 -1.72383,-0.60851 -1.72383,-0.60852 -2.51848,-1.13289 -2.51848,-1.13288 h -0.0444 -0.0444 l -0.69533,0.84076 -0.69533,0.84077 -0.43411,0.20887 -0.43412,0.20887 h -0.53392 -0.53393 l -0.30083,-0.2799 -0.30083,-0.27991 v -0.33507 -0.33508 l 0.48742,-0.46965 0.48743,-0.46964 0.33986,-0.41206 0.33986,-0.41205 v -0.11453 -0.11453 l -0.80653,-0.33187 -0.80653,-0.33187 -0.24638,-0.32729 -0.24638,-0.32728 v -0.38078 -0.38078 l 0.3343,-0.21787 0.3343,-0.21786 h 0.48742 0.48742 l 0.76322,0.2799 0.76321,0.27991 h 0.13199 0.13199 l 0.3889,-0.64741 0.3889,-0.64741 v -0.16336 -0.16336 l -0.48885,-0.13391 -0.48886,-0.1339 -0.27043,-0.48983 -0.27043,-0.48983 0.0966,-0.89364 0.0966,-0.89364 0.22611,-0.70844 0.22612,-0.70844 0.49677,-0.46221 0.49677,-0.46221 h 0.39108 0.39109 l 0.30083,0.2799 0.30083,0.27991 v 0.33228 0.33228 l -0.22562,0.595 -0.22563,0.595 v 0.20345 0.20345 l 0.48885,-0.10066 0.48886,-0.10067 0.43138,0.0107 0.43138,0.0107 0.3583,0.31319 0.35831,0.31319 v 0.48925 0.48925 l -1.12813,1.84621 -1.12812,1.84621 v 0.098 0.098 l 2.44427,1.09732 2.44426,1.09733 1.41983,0.51428 1.41983,0.51427 1.73891,0.46495 1.7389,0.46496 0.37604,0.049 0.37604,0.049 0.0471,-4.26853 0.0471,-4.26853 -0.16698,-3.84867 -0.16699,-3.848668 -0.36284,-4.89831 -0.36283,-4.89832 -0.1001,-0.45484 -0.10009,-0.45484 h -0.20713 -0.20714 l -0.67656,0.8551 -0.67656,0.85511 v 0.22186 0.22186 l -0.41364,0.41412 -0.41365,0.41412 0.30083,-0.10879 0.30084,-0.10878 0.41154,-0.15268 0.41154,-0.15268 0.17561,0.16339 0.1756,0.16339 -0.0126,0.41283 -0.0126,0.41284 -0.30611,0.5583 -0.30612,0.55829 -0.63309,0.5042 -0.63309,0.50421 -0.68008,0.30631 -0.68007,0.30632 -0.7909,0.061 -0.7909,0.061 -0.38023,-0.0888 -0.38023,-0.0888 -0.52013,-0.42491 -0.52013,-0.42491 -0.17453,-0.72767 -0.17452,-0.72767 0.0526,-2.14657 0.0526,-2.14657 0.42204,-0.33757 0.42203,-0.33757 h 0.30401 0.30402 l 0.47728,0.44779 0.47728,0.4478 0.41062,-0.0382 0.41061,-0.0382 0.38056,0.38207 0.38057,0.38207 0.0391,-0.0569 0.0391,-0.0569 0.57765,-0.80237 0.57765,-0.80238 0.57657,-0.48465 0.57656,-0.48465 0.63414,-0.15887 0.63414,-0.15888 0.50572,0.0883 0.50572,0.0883 0.51406,0.41994 0.51406,0.41995 0.15756,0.44785 0.15757,0.44785 0.1556,0.76931 0.1556,0.76931 0.36799,5.03868 0.36799,5.03869 0.16158,3.638748 0.16158,3.63874 -0.0256,4.54185 -0.0256,4.54185 0.28259,0.10697 0.28259,0.10697 2.33145,0.50477 2.33145,0.50476 1.8802,0.48368 1.8802,0.48369 1.65458,0.76088 1.65457,0.76088 0.81374,0.66486 0.81374,0.66486 0.42719,0.62675 0.4272,0.62675 v 0.53877 0.53877 l -0.36921,0.34351 -0.3692,0.34352 h -0.24235 -0.24235 l -0.28906,-0.14394 -0.28906,-0.14394 -0.52376,-0.76179 -0.52375,-0.7618 -1.01989,-0.63077 -1.0199,-0.63078 -1.29897,-0.48717 -1.29898,-0.48716 -3.71775,-0.859 -3.71775,-0.85901 -0.11007,0.11864 -0.11006,0.11863 -0.40318,3.28886 -0.40317,3.28887 -0.13949,1.37264 -0.13948,1.37263 -0.27198,0.43211 -0.27199,0.43211 -0.37604,0.25565 -0.37604,0.25565 -0.60166,0.0774 -0.60167,0.0773 z m -37.136204,-5.23334 -0.32967,-0.12225 -0.27199,-0.38634 -0.272,-0.38635 0.0532,-7.68653 0.0532,-7.68653 -0.34994,0.22805 -0.34993,0.22805 h -0.32229 -0.32229 l -0.39632,-0.29006 -0.39633,-0.29006 v -0.48887 -0.48888 l 0.14784,-0.25702 0.14784,-0.25703 0.79226,-0.53388 0.79226,-0.53388 0.11868,-0.14457 0.11868,-0.14457 -0.0914,-2.79903 -0.0914,-2.799038 -0.15168,-1.11961 -0.15167,-1.11961 -0.0839,-0.60069 -0.0839,-0.60068 0.34733,-0.34399 0.34733,-0.34399 h 0.47401 0.47402 l 0.32997,0.3268 0.32998,0.32681 0.23363,1.03772 0.23362,1.03773 0.10311,2.753518 0.10311,2.75352 0.0825,0.0767 0.0824,0.0767 0.560464,-0.14399 0.56046,-0.14398 0.63441,0.0428 0.63441,0.0428 0.044,0.28573 0.044,0.28573 -0.45224,0.58086 -0.45224,0.58087 -0.83265,0.57232 -0.832654,0.57233 v 5.29108 5.29109 l -0.0996,3.39407 -0.0996,3.39407 -0.2388,0.25518 -0.2388,0.25518 -0.30083,0.072 -0.30083,0.072 z m 10.505384,-4.10352 -0.33064,-0.32747 -0.14682,-0.47633 -0.14683,-0.47632 0.001,-1.40045 0.001,-1.40044 0.15135,-2.72906 0.15136,-2.72906 0.45954,-5.87797 0.45954,-5.877968 0.18812,-4.82834 0.18812,-4.82833 0.27818,-0.54164 0.27817,-0.54163 0.44824,-0.17536 0.44823,-0.17536 0.39094,0.0943 0.39094,0.0943 0.20408,0.42379 0.20408,0.42379 1.14966,-0.0546 1.14967,-0.0547 0.48279,0.2831 0.48278,0.2831 0.34011,0.60029 0.34012,0.60028 0.0571,1.86827 0.0571,1.86827 -0.17592,1.11945 -0.17592,1.11945 -0.0738,0.17892 -0.0738,0.17891 0.38501,0.0899 0.38501,0.0899 v 0.29951 0.29951 l -0.60311,0.74324 -0.60311,0.74323 -1.60112,0.98389 -1.60111,0.983888 h -0.26877 -0.26876 l -0.11071,0.16668 -0.11072,0.16668 -0.34008,4.34676 -0.34009,4.34677 -0.15941,2.65908 -0.15941,2.65908 0.003,1.39952 0.003,1.39952 0.14268,0.55981 0.14269,0.5598 -0.15832,0.45592 -0.15832,0.45592 -0.2789,0.13887 -0.2789,0.13888 h -0.43492 -0.43491 z m 3.85285,-21.917118 0.61146,-0.41213 0.10172,-0.29818 0.10171,-0.29818 -0.0777,-0.0723 -0.0777,-0.0723 -0.57532,0.18199 -0.57532,0.18198 -0.18802,0.1279 -0.18802,0.1279 v 0.4727 0.47269 h 0.12785 0.12784 z m 1.27628,-3.32323 0.11281,-0.0599 v -1.86395 -1.86395 l -0.21416,-0.16537 -0.21416,-0.16538 -0.60319,0.28632 -0.60319,0.28631 -0.23556,0.31292 -0.23557,0.31292 v 1.58525 1.58526 l 0.9401,-0.0953 0.94011,-0.0953 z m -23.126484,15.438478 -0.75208,-0.32999 -0.31767,-0.33342 -0.31768,-0.33341 -0.0861,-0.32991 -0.0861,-0.32991 0.13385,-0.32754 0.13384,-0.32754 0.37539,-0.22886 0.37539,-0.22885 0.309,0.0913 0.30901,0.0913 0.44307,0.34689 0.44307,0.34688 0.94231,0.14119 0.94231,0.1412 0.19318,0.14917 0.19318,0.14917 v 0.41349 0.41348 l -0.43968,0.40909 -0.43968,0.40909 -0.80125,-10e-4 -0.80126,-0.001 z"
       style="fill:#000000;fill-opacity:1;stroke:none;stroke-width:1.05833;stroke-dasharray:none;stroke-opacity:1;paint-order:normal"
       id="path1" />
  </g>
</svg>
