<?xml version="1.0" encoding="UTF-8" standalone="no"?>
<!-- Created with Inkscape (http://www.inkscape.org/) -->

<svg
   width="210mm"
   height="297mm"
   viewBox="0 0 210 297"
   version="1.1"
   id="svg1"
   xmlns="http://www.w3.org/2000/svg"
   xmlns:svg="http://www.w3.org/2000/svg">
  <defs
     id="defs1" />
  <g
     id="layer1"
     transform="matrix(4.2106399,0,0,4.5062117,-265.47981,-445.71723)">
    <path
       d="m 109.71187,157.02168 -0.9777,-0.32445 -1.51131,-0.70929 -1.51131,-0.70929 -2.24909,-1.14834 -2.2491,-1.14833 -2.816971,-1.59086 -2.81696,-1.59086 -3.19968,-1.55866 -3.19968,-1.55866 -2.479694,-1.2082 -2.4797,-1.20819 -3.46174,-1.54857 -3.46174,-1.54858 -1.35712,-0.78439 -1.35712,-0.78439 -0.28492,-0.29294 -0.28493,-0.29293 v -0.43986 -0.43986 l 0.34257,-0.2581 0.34257,-0.25809 h 0.4047 0.4047 l 1.42123,0.78346 1.42123,0.78347 0.86061,0.40612 0.8606,0.40613 h 0.16806 0.16807 l -0.0922,-0.8747 -0.0922,-0.8747 -0.0849,-1.74939 -0.0849,-1.7494 0.164,-2.0293 0.16401,-2.0293 0.31543,-2.14372 0.31543,-2.14372 -0.0832,-0.0774 -0.0832,-0.0774 -0.571,0.41448 -0.571,0.41448 -1.12812,0.69616 -1.12812,0.69617 -1.76223,0.93552 -1.76224,0.93553 h -0.52069 -0.52069 l -0.31175,-0.36875 -0.31175,-0.36876 v -0.3155 -0.3155 l 0.26323,-0.28786 0.26322,-0.28787 1.97273,-1.057 1.97272,-1.05699 1.33643,-0.87877 1.33643,-0.87877 0.0421,-1.7805 0.0421,-1.7805 h -0.0941 -0.0941 l -0.39926,0.26154 -0.39926,0.26155 -0.32115,0.0927 -0.32115,0.0927 -0.38316,-0.16244 -0.38316,-0.16243 -0.16737,-0.37597 -0.16738,-0.37597 0.14937,-0.36554 0.14938,-0.36555 1.22839,-0.94557 1.2284,-0.94558 -0.10227,-1.21635 -0.10227,-1.21635 0.22272,-0.49596 0.22272,-0.49596 0.30368,-0.15121 0.30368,-0.15122 h 0.38593 0.38592 l 0.30084,0.2799 0.30083,0.27991 v 0.76232 0.76231 l 0.61745,-0.0229 0.61746,-0.0229 0.20983,0.267 0.20984,0.267 v 0.48178 0.48178 l -0.75208,0.68881 -0.75208,0.68881 v 1.82823 1.82824 l 0.56406,-0.39355 0.56406,-0.39355 0.66089,-0.46277 0.6609,-0.46278 h 0.48817 0.48816 l 0.34758,0.26188 0.34758,0.26187 v 0.50598 0.50597 l -0.43155,0.4191 -0.43154,0.4191 -0.58671,0.3783 -0.58671,0.37831 -0.20905,0.37614 -0.20906,0.37613 -0.46447,3.54237 -0.46447,3.54238 0.0447,0.58968 0.0447,0.58968 1.09179,-1.14014 1.09179,-1.14015 1.24449,-1.22458 1.24448,-1.22457 h 0.535924 0.53593 l 0.22607,0.24491 0.22608,0.24492 0.0966,0.25274 0.0966,0.25273 -0.20209,0.45001 -0.20208,0.45001 -1.831604,1.83172 -1.83159,1.83172 -0.8329,0.96433 -0.83289,0.96433 -0.22652,0.39781 -0.22652,0.39781 -0.063,0.79178 -0.063,0.79177 -0.16252,0.73615 -0.16252,0.73615 -0.37521,0.41488 -0.3752,0.41488 1.77753,0.77945 1.77753,0.77944 3.309154,1.62371 3.30916,1.6237 2.51921,1.23648 2.51921,1.23648 3.347021,1.87208 3.34701,1.87209 3.00832,1.48036 3.00833,1.48036 1.2576,0.37448 1.25761,0.37448 0.28416,0.26439 0.28416,0.26439 v 0.4097 0.40969 l -0.39633,0.29006 -0.39632,0.29007 -0.61899,-0.003 -0.61898,-0.003 z m -45.912605,-6.18656 -0.41174,-0.20786 -0.0934,-0.34634 -0.0934,-0.34635 0.0953,-0.35344 0.0953,-0.35343 0.3124,-0.24136 0.3124,-0.24136 0.71026,-0.65449 0.71027,-0.65449 0.75897,-1.02493 0.75897,-1.02493 0.91265,-1.4778 0.91265,-1.4778 0.85511,-1.74109 0.85512,-1.74109 0.80474,-1.39952 0.80474,-1.39951 0.49295,-0.69506 0.49296,-0.69506 0.48412,-0.12865 0.48411,-0.12864 0.36231,0.22087 0.3623,0.22087 0.0979,0.36285 0.0979,0.36284 -0.51194,1.09915 -0.51194,1.09916 -0.48248,0.65247 -0.48248,0.65248 -1.16825,2.35331 -1.16824,2.35331 -1.05879,1.66314 -1.05879,1.66314 -0.71997,0.90969 -0.71997,0.90969 -0.83848,0.82382 -0.83849,0.82382 -0.48402,0.19083 -0.48402,0.19083 -0.11764,-0.006 -0.11765,-0.006 z m 46.186165,-7.2701 -0.40332,-0.20705 -0.093,-0.27256 -0.093,-0.27257 0.30457,-3.47171 0.30457,-3.47171 0.0826,-0.98791 0.0826,-0.98791 -0.0959,-0.0893 -0.0959,-0.0893 -0.77948,0.54757 -0.77948,0.54757 -0.73076,0.30076 -0.73075,0.30077 -0.63705,-0.0812 -0.63705,-0.0812 -0.0878,0.72994 -0.0878,0.72994 -0.0999,1.92985 -0.0999,1.92984 -0.29114,0.34437 -0.29114,0.34438 h -0.50462 -0.50462 l -0.31175,-0.36876 -0.31175,-0.36875 v -1.64736 -1.64737 l 0.24117,-2.5673 0.24116,-2.5673 -0.0738,-5.24819 -0.0738,-5.24819 -0.25263,-1.45755 -0.25264,-1.45754 0.0914,-0.33893 0.0914,-0.33893 0.69056,-0.68691 0.69056,-0.6869 -0.0886,-0.50794 -0.0886,-0.50793 -0.0587,-0.0547 -0.0587,-0.0546 -0.81259,0.34597 -0.81259,0.34597 -0.96769,0.23052 -0.96769,0.23052 -0.970381,-0.0575 -0.97038,-0.0575 -0.35577,-0.38484 -0.35578,-0.38484 v -0.33427 -0.33427 l 0.36312,-0.39267 0.36312,-0.39268 1.17864,-0.023 1.178651,-0.023 1.61304,-0.10018 1.61304,-0.10017 0.068,-0.22673 0.068,-0.22673 0.30437,-1.88935 0.30437,-1.88935 0.0871,-0.63434 0.0871,-0.63434 0.29659,-0.45378 0.29659,-0.45377 0.38641,-0.13669 0.38641,-0.13669 0.36957,0.0863 0.36957,0.0863 0.16655,0.28955 0.16655,0.28956 -0.17951,1.19883 -0.17951,1.19883 -0.30488,1.84466 -0.30488,1.84466 0.0506,0.22394 0.0506,0.22395 0.67688,-0.80848 0.67687,-0.80848 1.01435,-1.13265 1.01436,-1.13264 0.48981,-0.24526 0.4898,-0.24525 0.43637,0.0478 0.43638,0.0478 0.29769,0.37268 0.2977,0.37268 -0.0906,0.32708 -0.0906,0.32707 -0.62833,0.62979 -0.62832,0.62978 -1.38462,1.60944 -1.38463,1.60945 -0.66112,0.63682 -0.66112,0.63683 -0.88416,0.70725 -0.88416,0.70726 0.17277,0.92313 0.17278,0.92312 0.0817,1.58147 0.0817,1.58147 0.0743,0.33662 0.0743,0.33662 0.70575,-0.63839 0.70574,-0.63838 0.74977,-0.43643 0.74977,-0.43643 0.57616,-0.14435 0.57617,-0.14436 0.51431,0.15793 0.51432,0.15793 0.30587,0.36181 0.30587,0.3618 0.22034,0.71269 0.22034,0.71269 0.16195,1.04964 0.16195,1.04964 1.4e-4,4.51972 1.3e-4,4.51972 -0.23838,2.6878 -0.23837,2.68779 -0.0842,0.88058 -0.0842,0.88057 -0.32579,0.33873 -0.32579,0.33874 -0.37604,0.0729 -0.37604,0.0729 z m -3.06614,-10.56037 0.61155,-0.27566 1.20333,-0.92991 1.20332,-0.92991 0.11051,-0.15896 0.11051,-0.15895 0.002,-0.71142 0.002,-0.71143 -0.0921,-0.0856 -0.0921,-0.0857 -0.77284,0.40209 -0.77283,0.40208 -0.9139,0.2833 -0.91389,0.2833 -0.32704,-0.0796 -0.32704,-0.0796 -0.002,1.03098 -0.002,1.03097 -0.0932,0.52482 -0.0932,0.52482 h 0.27302 0.27303 z m 1.32174,-5.62056 0.8606,-0.4016 h 0.47306 0.47306 l -0.10751,-0.93408 -0.10751,-0.93407 -0.0765,-0.18554 -0.0765,-0.18554 h -0.19741 -0.19741 l -0.81423,0.69239 -0.81424,0.6924 -0.47642,0.83167 -0.47643,0.83168 v 0.0948 0.0948 l 0.33844,-0.0977 0.33844,-0.0976 z"
       style="fill:#000000;fill-opacity:1;stroke:none;stroke-width:1.05833;stroke-dasharray:none;stroke-opacity:1;paint-order:normal"
       id="path1" />
  </g>
</svg>
